<?xml version="1.0" standalone="no"?>
<!DOCTYPE svg PUBLIC "-//W3C//DTD SVG 20010904//EN"
 "http://www.w3.org/TR/2001/REC-SVG-20010904/DTD/svg10.dtd">
<svg version="1.0" xmlns="http://www.w3.org/2000/svg"
 width="700.000000pt" height="700.000000pt" viewBox="0 0 700.000000 700.000000"
 preserveAspectRatio="xMidYMid meet">
<metadata>
Created by potrace 1.14, written by Peter Selinger 2001-2017
</metadata>
<g transform="translate(0.000000,700.000000) scale(0.100000,-0.100000)"
fill="#000000" stroke="none">
<path d="M4510 6981 c-62 -16 -4093 -1806 -4230 -1877 -115 -60 -206 -167
-252 -295 -30 -87 -31 -247 -1 -329 41 -111 1865 -4197 1895 -4242 44 -70 133
-146 213 -185 136 -64 294 -68 433 -9 140 59 4087 1818 4143 1847 226 114 342
395 260 630 -33 95 -1861 4192 -1893 4241 -116 182 -359 276 -568 219z m115
-2121 c39 -12 101 -38 138 -57 74 -39 191 -142 237 -208 l29 -42 -185 -82
-186 -81 -45 39 c-127 113 -287 129 -458 46 -273 -132 -331 -444 -150 -805
112 -223 267 -348 445 -358 95 -5 164 9 256 53 183 88 273 242 244 415 -18
110 -10 109 -210 19 -96 -43 -180 -79 -186 -79 -9 0 -124 246 -124 267 0 7
672 310 711 320 12 3 30 -29 76 -134 88 -201 104 -258 110 -394 7 -137 -11
-235 -62 -344 -128 -278 -449 -477 -790 -492 -140 -6 -233 9 -351 58 -241 100
-447 340 -558 647 -50 140 -61 206 -61 372 0 185 12 238 86 390 46 92 64 116
148 201 134 134 295 223 476 263 104 23 317 16 410 -14z m-1831 -790 c105 -27
222 -90 302 -163 68 -62 154 -169 154 -191 0 -6 -81 -47 -180 -90 l-180 -79
-53 56 c-95 102 -219 141 -356 113 -143 -30 -273 -122 -330 -234 -86 -169 -62
-388 69 -641 100 -192 240 -307 403 -330 183 -26 393 79 472 236 27 53 30 67
30 160 l0 103 183 81 c101 44 186 79 188 76 3 -2 12 -37 20 -78 20 -93 13
-235 -16 -337 -76 -268 -283 -469 -591 -573 -83 -28 -111 -33 -230 -37 -172
-6 -255 11 -394 78 -254 123 -456 390 -552 734 -38 137 -44 348 -13 471 12 50
33 114 46 143 62 140 203 297 343 381 82 50 220 105 314 125 97 22 279 20 371
-4z"/>
</g>
</svg>
