<svg xmlns="http://www.w3.org/2000/svg" viewBox="0 0 408.17 408.32"><defs><style>.cls-1{fill:#f7bd01;}.cls-2{fill:#fff;}</style></defs><g id="Layer_2" data-name="Layer 2"><g id="Layer_1-2" data-name="Layer 1"><rect class="cls-1" x="42.09" y="42.01" width="323.99" height="324.3" rx="30.8" transform="translate(-65.4 100.66) rotate(-24)"/><path class="cls-2" d="M189.87,191.91l-21.7,9.66a23.55,23.55,0,0,0-5.77-6.43,21,21,0,0,0-7.21-3.52A22.79,22.79,0,0,0,147,191a28.35,28.35,0,0,0-8.65,2.37,26.47,26.47,0,0,0-12,10,27.61,27.61,0,0,0-4,15.33q.07,8.84,4.78,19.39,4.83,10.85,11.36,16.79a25.67,25.67,0,0,0,29.25,4.84,29.77,29.77,0,0,0,7.5-4.7,22.8,22.8,0,0,0,5.07-6.27,20.94,20.94,0,0,0,2.39-7.5,23.38,23.38,0,0,0-.57-8.41l21.74-9.56a43.06,43.06,0,0,1,1.8,15.31,44.46,44.46,0,0,1-3.83,15.53,45.65,45.65,0,0,1-9.8,14,53.54,53.54,0,0,1-16.2,10.75,52.19,52.19,0,0,1-27,4.65,47.43,47.43,0,0,1-24.76-10.29q-11.36-8.88-18.72-25.44t-6.33-31a47.8,47.8,0,0,1,9-25.3,52,52,0,0,1,21.35-16.84,57.09,57.09,0,0,1,17.47-4.81A45.72,45.72,0,0,1,163.48,171a41.46,41.46,0,0,1,14.69,7.32A47.39,47.39,0,0,1,189.87,191.91Z"/><path class="cls-2" d="M271.33,152.37a24.62,24.62,0,0,0-5.78-5.11,20.57,20.57,0,0,0-6.7-2.72,22.39,22.39,0,0,0-7.47-.26,28.53,28.53,0,0,0-8.07,2.35,26.54,26.54,0,0,0-11.93,9.94,27.6,27.6,0,0,0-4.14,15.29q0,8.8,4.72,19.41t11.25,16.6a27.35,27.35,0,0,0,14.16,7.26A27.07,27.07,0,0,0,273,212.82a30.13,30.13,0,0,0,11.3-8.15A20.23,20.23,0,0,0,289,193.79a24.14,24.14,0,0,0-2.26-12.47l4.65-1.3L265.2,191.67,258,175.52l42.46-18.91,5.69,12.79q6,13.36,4.57,25.47a41.87,41.87,0,0,1-9,21.69,52.93,52.93,0,0,1-20.38,15.28q-14.26,6.34-27.88,4.84a47.37,47.37,0,0,1-24.83-10.49q-11.21-9-18.36-25a69,69,0,0,1-6.21-23.62,51.13,51.13,0,0,1,2.77-20.91,47.7,47.7,0,0,1,10.55-17,53.47,53.47,0,0,1,17.11-11.83,54.67,54.67,0,0,1,17.16-4.65A47.65,47.65,0,0,1,268,124.35,41.89,41.89,0,0,1,282.28,131a40.69,40.69,0,0,1,10.85,11.7Z"/></g></g></svg>